<?xml version="1.0" encoding="iso-8859-1"?>
<!-- Uploaded to: SVG Repo, www.svgrepo.com, Generator: SVG Repo Mixer Tools -->
<svg height="800px" width="800px" version="1.1" id="Layer_1" xmlns="http://www.w3.org/2000/svg" xmlns:xlink="http://www.w3.org/1999/xlink" 
	 viewBox="0 0 512 512" xml:space="preserve">
<g transform="translate(1 1)">
	<g>
		<polygon style="fill:#00DA6C;" points="389.057,194.413 371.99,246.467 408.683,246.467 459.883,135.533 		"/>
		<polygon style="fill:#00DA6C;" points="121.11,194.413 50.283,135.533 101.483,246.467 138.177,246.467 		"/>
		<polygon style="fill:#00DA6C;" points="205.59,246.467 84.417,84.333 138.177,246.467 		"/>
	</g>
	<polygon style="fill:#00AD55;" points="219.243,246.467 228.63,183.32 169.75,41.667 169.75,197.827 205.59,246.467 	"/>
	<polygon style="fill:#00DA6C;" points="290.923,246.467 255.083,7.533 219.243,246.467 	"/>
	<polygon style="fill:#00AD55;" points="304.577,246.467 340.417,197.827 340.417,41.667 281.537,183.32 290.923,246.467 	"/>
	<polygon style="fill:#00DA6C;" points="371.99,246.467 425.75,84.333 303.723,246.467 	"/>
	<polygon style="fill:#FFE100;" points="370.283,468.333 400.15,289.133 110.017,289.133 139.883,468.333 	"/>
	<polygon style="fill:#FFFFFF;" points="110.017,289.133 139.883,468.333 160.363,468.333 135.617,289.133 	"/>
	<polygon style="fill:#FFA800;" points="374.55,289.133 349.803,468.333 370.283,468.333 400.15,289.133 	"/>
	<polygon style="fill:#FFE100;" points="391.617,502.467 118.55,502.467 110.017,468.333 400.15,468.333 	"/>
	<polygon style="fill:#FFFFFF;" points="110.017,468.333 118.55,502.467 142.443,502.467 135.617,468.333 	"/>
	<polygon style="fill:#FFA800;" points="374.55,468.333 367.723,502.467 391.617,502.467 400.15,468.333 	"/>
	<polygon style="fill:#FFE100;" points="101.483,289.133 408.683,289.133 408.683,246.467 101.483,246.467 	"/>
	<polygon style="fill:#FFFFFF;" points="75.883,289.133 101.483,289.133 101.483,246.467 75.883,246.467 	"/>
	<polygon style="fill:#FFA800;" points="408.683,289.133 434.283,289.133 434.283,246.467 408.683,246.467 	"/>
	<path d="M434.283,297.667h-358.4c-5.12,0-8.533-3.413-8.533-8.533v-42.667c0-5.12,3.413-8.533,8.533-8.533h358.4
		c5.12,0,8.533,3.413,8.533,8.533v42.667C442.817,294.253,439.403,297.667,434.283,297.667z M84.417,280.6H425.75V255H84.417V280.6z
		"/>
	<path d="M391.617,511H118.55c-4.267,0-7.68-2.56-8.533-6.827l-8.533-34.133c-0.853-2.56,0-5.12,1.707-7.68
		c1.707-1.707,4.267-2.56,6.827-2.56H400.15c2.56,0,5.12,0.853,6.827,3.413c1.707,1.707,2.56,5.12,1.707,7.68l-8.533,34.133
		C399.297,508.44,395.883,511,391.617,511z M125.377,493.933H384.79l4.267-17.067H121.11L125.377,493.933z"/>
	<path d="M370.283,476.867h-230.4c-4.267,0-7.68-3.413-8.533-6.827l-29.867-179.2c0-2.56,0-5.12,1.707-6.827
		s4.267-3.413,6.827-3.413H400.15c2.56,0,5.12,0.853,6.827,3.413c1.707,1.707,2.56,4.267,1.707,6.827l-29.867,179.2
		C377.963,473.453,374.55,476.867,370.283,476.867z M146.71,459.8h215.893l27.307-162.133H120.257L146.71,459.8z"/>
	<path d="M178.283,348.867H118.55c-5.12,0-8.533-3.413-8.533-8.533c0-5.12,3.413-8.533,8.533-8.533h59.733
		c5.12,0,8.533,3.413,8.533,8.533C186.817,345.453,183.403,348.867,178.283,348.867z"/>
	<path d="M220.95,348.867h-8.533c-5.12,0-8.533-3.413-8.533-8.533c0-5.12,3.413-8.533,8.533-8.533h8.533
		c5.12,0,8.533,3.413,8.533,8.533C229.483,345.453,226.07,348.867,220.95,348.867z"/>
	<path d="M263.617,417.133h-8.533c-5.12,0-8.533-3.413-8.533-8.533c0-5.12,3.413-8.533,8.533-8.533h8.533
		c5.12,0,8.533,3.413,8.533,8.533C272.15,413.72,268.737,417.133,263.617,417.133z"/>
	<path d="M380.523,417.133H297.75c-5.12,0-8.533-3.413-8.533-8.533c0-5.12,3.413-8.533,8.533-8.533h82.773
		c5.12,0,8.533,3.413,8.533,8.533C389.057,413.72,384.79,417.133,380.523,417.133z"/>
	<path d="M408.683,255H371.99c-2.56,0-5.12-1.707-6.827-3.413c-1.707-2.56-1.707-5.12-0.853-7.68l17.067-52.053
		c0.853-1.707,1.707-2.56,2.56-4.267l70.827-58.88c3.413-2.56,7.68-2.56,10.24,0c2.56,2.56,4.267,6.827,2.56,10.24l-51.2,110.933
		C414.657,253.293,412.097,255,408.683,255z M383.936,237.933h19.627l33.28-71.68l-40.107,33.28L383.936,237.933z"/>
	<path d="M138.177,255h-36.693c-3.413,0-5.973-1.707-7.68-5.12l-51.2-110.933c-1.707-3.413-0.853-7.68,2.56-10.24
		c3.413-2.56,7.68-2.56,10.24,0l70.827,58.88c0.853,0.853,1.707,2.56,2.56,4.267l17.067,52.053c0.853,2.56,0.853,5.12-0.853,7.68
		C144.15,253.293,141.59,255,138.177,255z M106.603,237.933h19.627l-12.8-38.4l-40.107-33.28L106.603,237.933z"/>
	<path d="M205.59,255h-67.413c-3.413,0-6.827-2.56-7.68-5.973L76.737,86.893c-1.707-4.267,0.853-8.533,4.267-10.24
		c3.413-1.707,7.68-0.853,10.24,2.56l121.173,162.133c1.707,2.56,2.56,5.973,0.853,8.533C211.563,252.44,209.003,255,205.59,255z
		 M145.003,237.933h44.373l-80.213-106.667L145.003,237.933z"/>
	<path d="M219.243,255h-12.8c-2.56,0-5.12-0.853-6.827-3.413l-35.84-48.64c-0.853-1.707-1.707-3.413-1.707-5.12V41.667
		c0-4.267,2.56-7.68,6.827-8.533s7.68,1.707,9.387,5.12l58.88,141.653c0.853,1.707,0.853,3.413,0.853,4.267l-9.387,63.147
		C226.923,251.587,223.51,255,219.243,255z M209.857,237.933h0.853l7.68-53.76l-40.107-99.84v110.933L209.857,237.933z"/>
	<path d="M290.923,255H218.39c-2.56,0-5.12-0.853-6.827-2.56s-2.56-4.267-1.707-6.827L245.697,6.68
		c1.707-4.267,5.12-7.68,9.387-7.68l0,0c4.267,0,7.68,3.413,8.533,7.68l35.84,238.933c0,2.56,0,5.12-1.707,6.827
		C296.043,254.147,293.483,255,290.923,255z M228.63,237.933h52.907L255.083,64.707L228.63,237.933z"/>
	<path d="M304.577,255h-12.8c-4.267,0-7.68-3.413-8.533-7.68l-9.387-63.147c0-1.707,0-3.413,0.853-4.267l58.88-141.653
		c1.707-3.413,5.12-5.973,9.387-5.12c3.413,0.853,5.973,4.267,5.973,8.533v156.16c0,1.707-0.853,3.413-1.707,5.12l-35.84,48.64
		C309.697,254.147,307.137,255,304.577,255z M298.603,237.933h0.853l32.427-42.667V84.333l-40.96,99.84L298.603,237.933z"/>
	<path d="M371.99,255h-67.413c-3.413,0-5.973-1.707-7.68-5.12c-1.707-2.56-0.853-5.973,0.853-8.533L418.923,79.213
		c2.56-3.413,6.827-4.267,11.093-2.56c3.413,1.707,5.12,5.973,4.267,10.24l-53.76,162.133C378.817,252.44,375.403,255,371.99,255z
		 M321.643,237.933h44.373l35.84-106.667L321.643,237.933z"/>
</g>
</svg>